<?xml version="1.0" encoding="utf-8"?>
<!-- Generator: Adobe Illustrator 24.3.0, SVG Export Plug-In . SVG Version: 6.00 Build 0)  -->
<svg version="1.1" id="Layer_1" xmlns="http://www.w3.org/2000/svg" xmlns:xlink="http://www.w3.org/1999/xlink" x="0px" y="0px"
	 viewBox="0 0 360 360" style="enable-background:new 0 0 360 360;" xml:space="preserve">
<style type="text/css">
	.st0{fill:#79D1F6;stroke:#CA2D91;stroke-width:9;stroke-miterlimit:10;}
	.st1{fill:#FFFFFF;}
</style>
<rect x="23.02" y="23.02" class="st0" width="313.96" height="313.96"/>
<g>
	<g>
		<path class="st1" d="M182.55,121.89c8.2-9.33,9.03-23.09,3.6-34c-2.68-5.38-6.78-9.93-11.53-13.56
			c-5.02-3.83-11.19-7.08-17.53-7.8c-6.16-0.7-13.16,2.21-15.06,8.56c-1.86,6.2,2.61,12.49,7.97,15.22
			c5.77,2.94,12.65,2.97,18.73,0.92c6.12-2.06,11.33-6.1,15.61-10.86c4.93-5.48,9.14-11.83,12.56-18.35
			c3.59-6.82,6.13-14.12,6.78-21.83c0.11-1.35-1.23-2.5-2.5-2.5c-1.45,0-2.39,1.15-2.5,2.5c-0.99,11.67-7.11,22.41-13.88,31.69
			c-6.27,8.6-15.28,16.73-26.69,15.7c-4.55-0.41-9.75-3-11.18-7.66c-1.41-4.58,2.72-8.1,7-8.48c5.53-0.49,11.2,2.47,15.68,5.43
			c4.17,2.75,7.87,6.35,10.55,10.58c5.87,9.28,6.39,22.32-1.15,30.9c-0.89,1.01-1,2.54,0,3.54
			C179.92,122.8,181.65,122.91,182.55,121.89L182.55,121.89z"/>
	</g>
</g>
<g>
	<path class="st1" d="M285.64,188.68c-0.57,0-1.15,0.04-1.72,0.13c-8.97-49.25-52.03-86.58-103.89-86.58
		c-51.86,0-94.93,37.33-103.89,86.58c-0.57-0.09-1.15-0.13-1.72-0.13c-7.82,0-14.18,6.36-14.18,14.18c0,7.82,6.36,14.14,14.18,14.14
		c0.13,0,0.27,0,0.4-0.04c4.59,54.07,49.96,96.47,105.22,96.47c55.26,0,100.62-42.41,105.22-96.47c0.13,0.04,0.27,0.04,0.4,0.04
		c7.82,0,14.14-6.32,14.14-14.14C299.77,195.04,293.46,188.68,285.64,188.68z M137.04,202.86c0-13.83,7.69-25.05,17.23-25.05
		c9.5,0,17.23,11.22,17.23,25.05c0,13.83-7.73,25.05-17.23,25.05C144.73,227.9,137.04,216.68,137.04,202.86z M178.83,277.95
		c-13.47,0-24.56-10.42-25.62-23.59c6.58,4.37,15.46,7.07,25.27,7.07c10.2,0,19.39-2.87,25.97-7.55
		C203.65,267.31,192.52,277.95,178.83,277.95z M205.77,227.9c-9.5,0-17.23-11.22-17.23-25.05c0-13.83,7.73-25.05,17.23-25.05
		c9.54,0,17.23,11.22,17.23,25.05C223,216.68,215.32,227.9,205.77,227.9z"/>
</g>
</svg>
